<svg version="1.1" xmlns="http://www.w3.org/2000/svg" xmlns:xlink="http://www.w3.org/1999/xlink" x="0px" y="0px" viewBox="0 0 48 48" enable-background="new 0 0 48 48" xml:space="preserve" width="20" height="20" style="fill: rgb(85, 93, 102);">
<path fill="#FFAB40" d="M33.5,16c-2.511,0-4.797,0.994-6.5,2.6c-1.703-1.606-3.989-2.6-6.5-2.6c-5.225,0-9.5,4.275-9.5,9.5V37h6&#10;&#9;V24.5c0-1.925,1.575-3.5,3.5-3.5s3.5,1.575,3.5,3.5V37h6V24.5c0-1.925,1.575-3.5,3.5-3.5s3.5,1.575,3.5,3.5V37h6V25.5&#10;&#9;C43,20.275,38.725,16,33.5,16z"/>
<line fill="none" stroke="#000000" stroke-miterlimit="10" x1="6" y1="16.21" x2="6" y2="32"/>
<path fill="#424242" d="M22,13c1.087,0.359,2.623,2,3,3c-1.754,1.739-2.575,2.866-3,6c-0.142,1.05-0.903,1.688-2,1&#10;&#9;c-3.054-1.916-6-2-8-2c-1-1-0.536-3.652,0-5l6,1L22,13z"/>
<polygon fill="#616161" points="18,17 4,17 15,10 29,10 "/>
<ellipse fill="#424242" cx="6" cy="30" rx="1.5" ry="4"/>
</svg>